<svg width="44" height="40" viewBox="0 0 44 40" fill="none" xmlns="http://www.w3.org/2000/svg">
<path d="M20.8142 1.72527C21.1095 0.825286 22.3741 0.801935 22.7024 1.6904L27.1839 13.8192C27.3311 14.2174 27.7137 14.4793 28.1382 14.4724L41.7444 14.2511C42.7296 14.2351 43.1417 15.5031 42.3353 16.0694L31.5957 23.611C31.2243 23.8719 31.0751 24.3502 31.2324 24.776L35.6386 36.7009C35.9725 37.6046 34.961 38.4115 34.1541 37.885L22.8587 30.5146C22.5163 30.2911 22.0722 30.2987 21.7376 30.5337L10.7202 38.2704C9.93297 38.8232 8.8955 38.0543 9.19539 37.1403L13.1557 25.069C13.2969 24.6387 13.1312 24.1673 12.752 23.9198L1.73441 16.7307C0.908571 16.1918 1.27865 14.9093 2.26462 14.8933L15.8585 14.6722C16.2846 14.6653 16.6595 14.389 16.7924 13.984L20.8142 1.72527Z" stroke="#E99C10" stroke-width="2"/>
</svg>
