<svg width="46" height="46" viewBox="0 0 46 46" fill="none" xmlns="http://www.w3.org/2000/svg">
<path d="M3.10224 27.6205C3.00311 27.7653 2.85089 27.8645 2.67838 27.8966C2.63686 27.9034 2.5947 27.9034 2.55318 27.8966C2.23295 27.9024 1.95488 27.6771 1.89406 27.3627C0.947217 22.444 1.72738 17.349 4.10222 12.9385M3.10224 27.6205L14.9292 3.15621C10.3015 5.07312 6.47673 8.52868 4.10222 12.9385M3.10224 27.6205C3.20104 27.4757 3.23837 27.2977 3.20555 27.1255L3.10224 27.6205ZM4.10222 12.9385L3.83808 12.7963C6.24535 8.32561 10.1229 4.82239 14.8144 2.87905L14.8144 2.87904C19.5062 0.936038 24.7246 0.671414 29.5887 2.13056C34.2132 3.51751 38.2476 6.38203 41.0809 10.2744L41.7181 6.17182L41.7183 6.17045C41.8017 5.6497 42.2901 5.29368 42.8116 5.37426L42.8134 5.37454C43.3342 5.45831 43.6897 5.94642 43.6094 6.46763C43.6094 6.46778 43.6094 6.46792 43.6094 6.46806L42.6076 13.1175L42.6072 13.1207C42.5314 13.5892 42.1246 13.9317 41.6501 13.9267H41.5466H41.5235L41.5007 13.9231L34.8712 12.8951C34.871 12.895 34.8708 12.895 34.8705 12.895C34.3433 12.8154 33.9794 12.3238 34.0588 11.7959C34.1378 11.2676 34.6303 10.9042 35.158 10.9835L35.159 10.9836L39.7539 11.6901C36.9614 7.7009 32.8115 4.85209 28.0682 3.68582C23.1602 2.47909 17.9801 3.16283 13.5555 5.59732L13.4036 5.68224C9.70978 7.74805 6.76325 10.9286 4.98463 14.7693L4.7124 14.6433L4.98462 14.7693C3.206 18.6099 2.6863 22.9141 3.49995 27.0678L3.50024 27.0693C3.54807 27.3202 3.49359 27.5792 3.35006 27.7896L3.3498 27.7899C3.20566 28.0005 2.98414 28.1448 2.7334 28.1916L2.72659 28.1928L2.72657 28.1927C2.66246 28.2032 2.59737 28.2045 2.53301 28.1967C2.07787 28.1929 1.6864 27.8688 1.59952 27.4197L1.59946 27.4194C0.639564 22.4328 1.43049 17.2676 3.83808 12.7963L4.10222 12.9385Z" fill="#E99C10" stroke="#E99C10" stroke-width="0.6"/>
<path d="M43.7327 18.1277C44.2594 18.0248 44.7698 18.3684 44.8723 18.8953L44.8721 18.8953C45.7261 23.168 45.295 27.5975 43.6335 31.6253C41.9717 35.6538 39.1537 39.0997 35.5349 41.5275C31.9165 43.9556 27.6593 45.2572 23.3015 45.2676H23.3011C19.7035 45.2722 16.1592 44.3984 12.9759 42.723L12.9758 42.723C10.0299 41.1724 7.47513 38.9781 5.49926 36.3073L5.09136 40.3795C5.05532 40.8622 4.66493 41.2431 4.18057 41.2665L4.16646 40.9735V41.2668H4.16614H4.10048H4.0862L4.07199 41.2655C3.81709 41.2411 3.58243 41.1162 3.42027 40.918L3.42027 40.9179C3.25849 40.7202 3.18214 40.4659 3.20854 40.2114C3.20857 40.2111 3.20861 40.2108 3.20864 40.2104L3.86759 33.5353L3.86795 33.5317L3.86798 33.5317C3.92224 33.0437 4.33567 32.6758 4.82608 32.6781M43.7327 18.1277L4.82527 32.9781M43.7327 18.1277C43.206 18.2303 42.8627 18.7407 42.9651 19.267L42.9652 19.2675C43.863 23.8412 43.1456 28.5847 40.936 32.6884L41.2001 32.8306M43.7327 18.1277L17.2895 42.3871M4.82608 32.6781C4.82638 32.6781 4.82668 32.6781 4.82698 32.6781L4.82527 32.9781M4.82608 32.6781H4.82527V32.9781M4.82608 32.6781H4.89124H4.906L4.92069 32.6796L11.6043 33.3387L11.6047 33.3387C12.1337 33.3916 12.5194 33.8634 12.4666 34.3922C12.4137 34.9212 11.9418 35.3068 11.4131 35.254L11.4127 35.254L6.78255 34.7851M4.82527 32.9781H4.89124L11.5749 33.6372C11.9389 33.6736 12.2044 33.9983 12.168 34.3623C12.1317 34.7263 11.8069 34.9919 11.4429 34.9555L6.55745 34.4608C6.63148 34.5697 6.70652 34.6778 6.78255 34.7851M6.78255 34.7851C9.34693 38.4037 13.0392 41.0795 17.2894 42.3871M6.78255 34.7851L6.38862 34.7452C8.99619 38.5259 12.8046 41.3212 17.2012 42.6738M17.2894 42.3871L43.7903 18.4222C43.4263 18.493 43.1888 18.8457 43.2596 19.2097C44.1707 23.8516 43.4427 28.6657 41.2001 32.8306M17.2894 42.3871L17.2012 42.6738M17.2894 42.3871L17.2895 42.3871M17.2012 42.6738C21.7229 44.0645 26.5867 43.8434 30.963 42.0485C35.3397 40.2535 38.9578 36.9956 41.2001 32.8306M17.2012 42.6738L17.2895 42.3871M41.2001 32.8306L40.936 32.6884C38.7266 36.7922 35.1616 40.0023 30.8492 41.771C26.5371 43.5395 21.7447 43.7574 17.2895 42.3871M4.15891 40.9668H4.16614H4.15891Z" fill="#E99C10" stroke="#E99C10" stroke-width="0.6"/>
<path d="M24.4195 35.9055L24.1153 35.9013L22.217 35.8749L21.9212 35.8708V35.575V32.8241C20.3681 32.7693 18.8536 32.318 17.5227 31.5115H17.1807L17.3245 31.1103L18.0496 29.0868L18.1783 28.7277L18.497 28.9374C19.7374 29.754 21.1868 30.1945 22.6716 30.2063L22.6996 30.2065C24.708 30.1945 25.9548 28.9961 25.9548 27.5537C25.9548 26.8058 25.6954 26.2103 25.1762 25.6881C24.6464 25.1552 23.8391 24.6926 22.7361 24.2467C21.1915 23.64 19.9046 22.9786 19.0028 22.1141C18.0879 21.2368 17.5774 20.1577 17.5774 18.7543C17.5774 16.1561 19.3787 14.1927 22.1253 13.646V10.8511V10.5511H22.4253H24.2975H24.5975V10.8511V13.498C25.9198 13.5534 27.2109 13.9254 28.3619 14.5849L28.5842 14.7123L28.4931 14.9518L27.7416 16.9292L27.6138 17.2657L27.3058 17.0792C26.2088 16.415 24.949 16.0673 23.6665 16.0747L23.6651 15.8303V16.0747L24.4195 35.9055ZM24.4195 35.9055V35.6013V32.6948C27.5022 32.0866 29.1786 29.7894 29.1786 27.3227C29.1786 25.9154 28.7642 24.78 27.9313 23.8345C27.107 22.8987 25.89 22.1684 24.3192 21.5281M24.4195 35.9055L24.3192 21.5281M24.3192 21.5281C23.0011 20.9844 22.109 20.5321 21.5453 20.0406C21.003 19.5677 20.7683 19.0622 20.7683 18.3716C20.7683 17.8394 20.9616 17.2707 21.4065 16.8352C21.8487 16.4023 22.5666 16.0747 23.6648 16.0747L24.3192 21.5281Z" fill="#E99C10" stroke="#E99C10" stroke-width="0.6"/>
</svg>
