<svg width="38" height="34" viewBox="0 0 38 34" fill="none" xmlns="http://www.w3.org/2000/svg">
<path d="M23.0134 22.9762C22.8237 22.9812 22.6445 23.0636 22.5131 23.2048C22.5129 23.205 22.5127 23.2053 22.5125 23.2055L19.2974 26.5589C19.1355 26.3901 18.9736 26.2217 18.8117 26.0533L18.811 26.0525L18.8101 26.0516C18.6247 25.8587 18.4394 25.6659 18.2542 25.4727C18.1208 25.3209 17.9334 25.232 17.7346 25.2286L17.7345 25.2286C17.5351 25.2255 17.3441 25.3086 17.2058 25.4566L17.2057 25.4568C17.068 25.605 16.9943 25.8051 17.0003 26.0106C17.0063 26.2153 17.091 26.4097 17.2364 26.5486C17.4413 26.7624 17.6457 26.9759 17.8501 27.1893C18.1623 27.5153 18.4743 27.841 18.7872 28.1674C19.0692 28.4621 19.5256 28.462 19.8078 28.1675L23.533 24.2815C23.5332 24.2813 23.5334 24.2811 23.5336 24.2809C23.7482 24.0642 23.8132 23.7326 23.7003 23.4454C23.587 23.1573 23.3155 22.9682 23.0134 22.9762ZM23.0134 22.9762L23.016 23.0762M23.0134 22.9762C23.0134 22.9762 23.0133 22.9762 23.0133 22.9762L23.016 23.0762M23.016 23.0762C22.8537 23.0805 22.6995 23.151 22.5858 23.2735M23.016 23.0762L22.5858 23.2735M22.5858 23.2735L19.3666 26.6312L22.5858 23.2735ZM3.7692 0.9C2.18672 0.9 0.9 2.26814 0.9 3.92683V23.4878C0.9 25.1465 2.18672 26.5146 3.7692 26.5146H13.4066C13.7996 30.2079 16.7762 33.1 20.3848 33.1C23.9934 33.1 26.97 30.2079 27.363 26.5146H34.2308C35.8133 26.5146 37.1 25.1465 37.1 23.4878V3.92683C37.1 2.26814 35.8133 0.9 34.2308 0.9H3.7692ZM3.7692 2.56341H34.2304C34.9492 2.56341 35.515 3.15358 35.515 3.92683V7.29024H2.4846V3.92683C2.4846 3.15358 3.05044 2.56341 3.7692 2.56341ZM2.4846 8.95366H35.515V10.2171H2.4846V8.95366ZM2.4846 11.8805H35.515V23.4878C35.515 24.2614 34.9492 24.8512 34.2304 24.8512H27.3627C26.9708 21.1566 23.9936 18.2659 20.3844 18.2659C16.775 18.2659 13.798 21.1566 13.4061 24.8512H3.7688C3.05003 24.8512 2.4842 24.2614 2.4842 23.4878L2.4846 11.8805ZM4.38545 16.0709C3.94324 16.0948 3.61219 16.4907 3.63405 16.9445C3.65589 17.3977 4.02246 17.7563 4.46406 17.7341H12.0761C12.2898 17.737 12.4945 17.6495 12.645 17.4927C12.7954 17.336 12.879 17.1234 12.879 16.9024C12.879 16.6815 12.7954 16.4689 12.645 16.3122C12.4945 16.1554 12.2898 16.0679 12.0761 16.0707H4.46414C4.43791 16.0694 4.41168 16.0694 4.38545 16.0709ZM4.39658 18.9977C3.95437 19.0216 3.62331 19.4176 3.64518 19.8713C3.66702 20.3245 4.03359 20.6832 4.47518 20.661H9.40977C9.62348 20.6638 9.82824 20.5763 9.97867 20.4195C10.1291 20.2628 10.2127 20.0503 10.2127 19.8293C10.2127 19.6083 10.1291 19.3957 9.97867 19.239C9.82823 19.0822 9.62348 18.9947 9.40976 18.9976H4.47527C4.44904 18.9962 4.4228 18.9963 4.39658 18.9977ZM12.001 18.9977C11.5588 19.0216 11.2278 19.4176 11.2496 19.8713C11.2715 20.3245 11.6381 20.6832 12.0796 20.661H12.7795C12.9929 20.6638 13.1976 20.5763 13.3481 20.4195C13.4984 20.2629 13.5824 20.0504 13.5824 19.8293C13.5824 19.6082 13.4984 19.3957 13.3481 19.239C13.1976 19.0823 12.9929 18.9947 12.7795 18.9976H12.0797C12.0535 18.9962 12.0273 18.9963 12.001 18.9977ZM20.3846 19.9293C23.3914 19.9293 25.823 22.4914 25.823 25.6829C25.823 28.8747 23.3914 31.4366 20.3846 31.4366C17.3778 31.4366 14.9462 28.8747 14.9462 25.6829C14.9462 22.4914 17.3778 19.9293 20.3846 19.9293Z" fill="#E99C10" stroke="#E99C10" stroke-width="0.2"/>
</svg>
