<svg width="40" height="43" viewBox="0 0 40 43" fill="none" xmlns="http://www.w3.org/2000/svg">
<rect x="13.6997" y="14.6753" width="13.6504" height="13.6504" rx="6.82518" stroke="#E99C10" stroke-width="2.5" stroke-linejoin="round"/>
<path fill-rule="evenodd" clip-rule="evenodd" d="M37.5642 12.846L36.3013 10.6545C35.2329 8.80018 32.8652 8.16049 31.0083 9.22448V9.22448C30.1244 9.74517 29.0697 9.8929 28.0768 9.63508C27.0838 9.37727 26.2342 8.73509 25.7153 7.85015C25.3815 7.28768 25.2021 6.64701 25.1953 5.99296V5.99296C25.2254 4.94435 24.8298 3.92819 24.0986 3.17598C23.3674 2.42377 22.3628 1.99957 21.3138 2H18.7694C17.7417 1.99999 16.7563 2.40953 16.0313 3.13799C15.3063 3.86646 14.9015 4.8538 14.9064 5.88153V5.88153C14.876 8.00345 13.1471 9.70757 11.0249 9.70735C10.3709 9.70055 9.7302 9.52117 9.16772 9.18733V9.18733C7.31086 8.12334 4.94314 8.76304 3.87473 10.6174L2.51898 12.846C1.45186 14.698 2.08285 17.0642 3.93044 18.139V18.139C5.13141 18.8324 5.87123 20.1138 5.87123 21.5005C5.87123 22.8873 5.13141 24.1687 3.93044 24.862V24.862C2.0852 25.9295 1.45352 28.29 2.51898 30.1365V30.1365L3.80044 32.3465C4.30103 33.2498 5.14094 33.9163 6.13431 34.1987C7.12768 34.481 8.19261 34.3558 9.09344 33.8508V33.8508C9.979 33.3341 11.0343 33.1925 12.0247 33.4576C13.0152 33.7226 13.8587 34.3723 14.3679 35.2623C14.7017 35.8248 14.8811 36.4654 14.8879 37.1195V37.1195C14.8879 39.2632 16.6257 41.001 18.7694 41.001H21.3138C23.4502 41.0011 25.1851 39.2745 25.1953 37.1381V37.1381C25.1903 36.1071 25.5977 35.1169 26.3267 34.3879C27.0557 33.6589 28.0459 33.2516 29.0768 33.2565C29.7293 33.274 30.3673 33.4527 30.934 33.7766V33.7766C32.786 34.8437 35.1523 34.2127 36.227 32.3651V32.3651L37.5642 30.1365C38.0818 29.2481 38.2238 28.19 37.9589 27.1965C37.694 26.203 37.0439 25.3562 36.1527 24.8435V24.8435C35.2615 24.3307 34.6115 23.4839 34.3465 22.4904C34.0816 21.497 34.2237 20.4389 34.7413 19.5505C35.0778 18.9628 35.5651 18.4756 36.1527 18.139V18.139C37.9892 17.0648 38.6188 14.7124 37.5642 12.8646V12.8646V12.846Z" stroke="#E99C10" stroke-width="2.5" stroke-linecap="round" stroke-linejoin="round"/>
</svg>
